<svg width="250" height="250" xmlns="http://www.w3.org/2000/svg">
 <style type="text/css">.st0{fill:#DD0031;}
	.st1{fill:#C3002F;}
	.st2{fill:#FFFFFF;}</style>

 <g>
  <title>background</title>
  <rect fill="none" id="canvas_background" height="402" width="582" y="-1" x="-1"/>
 </g>
 <g>
  <title>Layer 1</title>
  <g stroke="null" id="svg_1">
   <polygon stroke="null" id="svg_2" points="124.5,1.0000028610229492 124.5,1.0000028610229492 124.5,1.0000028610229492 0.8999956250190735,42.334002622346475 19.75197982788086,195.59350178700436 124.5,249.99998837928354 124.5,249.99998837928354 124.5,249.99998837928354 229.24801635742188,195.59350178700436 248.10000610351562,42.334002622346475 " class="st0"/>
   <polygon stroke="null" id="svg_3" points="124.5,1.0000028610229492 124.5,28.639002018283804 124.5,28.514498682115686 124.5,154.63299555702827 124.5,154.63299555702827 124.5,249.99998837928354 124.5,249.99998837928354 229.24801635742188,195.59350178700436 248.10000610351562,42.334002622346475 124.5,1.0000028610229492 " class="st1"/>
   <path stroke="null" id="svg_4" d="m124.499998,28.514502l-77.266596,162.472494l0,0l28.809023,0l0,0l15.532975,-36.353999l65.583674,0l15.532975,36.353999l0,0l28.809023,0l0,0l-77.001075,-162.472494l0,0l0,0l0,0l0,0zm22.569281,103.708496l-45.138561,0l22.569281,-50.920498l22.569281,50.920498z" class="st2"/>
  </g>
 </g>
</svg>