<svg width="150" height="150" xmlns="http://www.w3.org/2000/svg">

 <g>
  <title>background</title>
  <rect fill="none" id="canvas_background" height="152" width="152" y="-1" x="-1"/>
 </g>
 <g>
  <title>Layer 1</title>
  <g stroke="null" id="svg_1">
   <path stroke="null" id="svg_2" d="m149.304061,75.015508c0,-10.077947 -12.328475,-19.62874 -31.230118,-25.551471c4.361918,-19.721767 2.423288,-35.412355 -6.118801,-40.435824c-1.968921,-1.178345 -4.271044,-1.736508 -6.785205,-1.736508l0,6.915022c1.39339,0 2.514161,0.279082 3.453185,0.806236c4.119589,2.418707 5.906763,11.6284 4.513373,23.473864c-0.333202,2.914852 -0.878442,5.98475 -1.544846,9.116666c-5.937054,-1.488435 -12.419349,-2.635771 -19.234845,-3.379988c-4.089298,-5.736677 -8.330051,-10.946201 -12.601095,-15.504534c9.874897,-9.395747 19.143971,-14.543253 25.444519,-14.543253l0,-6.915022c0,0 0,0 0,0c-8.330051,0 -19.234845,6.077777 -30.260803,16.62086c-11.025958,-10.481065 -21.930752,-16.496824 -30.260803,-16.496824l0,6.915022c6.270256,0 15.569622,5.116496 25.444519,14.450225c-4.240753,4.558333 -8.481506,9.736847 -12.510222,15.473525c-6.845787,0.744218 -13.328081,1.891553 -19.265136,3.410997c-0.696695,-3.100907 -1.211644,-6.108786 -1.575137,-8.99263c-1.423681,-11.845464 0.333202,-21.055157 4.4225,-23.504873c0.908733,-0.558163 2.090085,-0.806236 3.483476,-0.806236l0,-6.915022c0,0 0,0 0,0c-2.544452,0 -4.846575,0.558163 -6.845787,1.736508c-8.511797,5.023469 -10.420136,20.683048 -6.027928,40.342797c-18.841061,5.953741 -31.108954,15.473525 -31.108954,25.520462c0,10.077947 12.328475,19.62874 31.230118,25.551471c-4.361918,19.721767 -2.423288,35.412355 6.118801,40.435824c1.968921,1.178345 4.271044,1.736508 6.815496,1.736508c8.330051,0 19.234845,-6.077777 30.260803,-16.62086c11.025958,10.481065 21.930752,16.496824 30.260803,16.496824c2.544452,0 4.846575,-0.558163 6.845787,-1.736508c8.511797,-5.023469 10.420136,-20.683048 6.027928,-40.342797c18.780478,-5.922732 31.048371,-15.473525 31.048371,-25.520462zm-39.439004,-20.683048c-1.12077,4.00017 -2.514161,8.124376 -4.089298,12.248582c-1.241935,-2.480725 -2.544452,-4.961451 -3.968133,-7.442176c-1.39339,-2.480725 -2.877654,-4.899433 -4.361918,-7.256122c4.301335,0.65119 8.451215,1.457426 12.419349,2.449716zm-13.873321,33.024657c-2.362705,4.186224 -4.785993,8.155385 -7.300154,11.845464c-4.513373,0.403118 -9.087328,0.620181 -13.691575,0.620181c-4.573955,0 -9.14791,-0.217063 -13.630992,-0.589172c-2.514161,-3.690079 -4.967739,-7.628231 -7.330445,-11.783446c-2.302123,-4.062188 -4.392209,-8.186394 -6.300548,-12.341609c1.878048,-4.155215 3.998424,-8.31043 6.270256,-12.372618c2.362705,-4.186224 4.785993,-8.155385 7.300154,-11.845464c4.513373,-0.403118 9.087328,-0.620181 13.691575,-0.620181c4.573955,0 9.14791,0.217063 13.630992,0.589172c2.514161,3.690079 4.967739,7.628231 7.330445,11.783446c2.302123,4.062188 4.392209,8.186394 6.300548,12.341609c-1.908339,4.155215 -3.998424,8.31043 -6.270256,12.372618zm9.784023,-4.031179c1.635719,4.155215 3.029109,8.31043 4.180171,12.341609c-3.968133,0.99229 -8.148304,1.829535 -12.479931,2.480725c1.484264,-2.387698 2.968527,-4.837414 4.361918,-7.349149c1.39339,-2.480725 2.695907,-4.99246 3.937842,-7.473185zm-30.715169,33.086675c-2.817072,-2.97687 -5.634143,-6.294841 -8.420924,-9.922902c2.726198,0.124036 5.512979,0.217063 8.330051,0.217063c2.847363,0 5.664435,-0.062018 8.420924,-0.217063c-2.726198,3.628061 -5.54327,6.946031 -8.330051,9.922902zm-22.536574,-18.264341c-4.301335,-0.65119 -8.451215,-1.457426 -12.419349,-2.449716c1.12077,-4.00017 2.514161,-8.124376 4.089298,-12.248582c1.241935,2.480725 2.544452,4.961451 3.968133,7.442176c1.423681,2.480725 2.877654,4.899433 4.361918,7.256122zm22.385119,-64.529869c2.817072,2.97687 5.634143,6.294841 8.420924,9.922902c-2.726198,-0.124036 -5.512979,-0.217063 -8.330051,-0.217063c-2.847363,0 -5.664435,0.062018 -8.420924,0.217063c2.726198,-3.628061 5.54327,-6.946031 8.330051,-9.922902zm-22.41541,18.264341c-1.484264,2.387698 -2.968527,4.837414 -4.361918,7.349149c-1.39339,2.480725 -2.695907,4.961451 -3.937842,7.442176c-1.635719,-4.155215 -3.029109,-8.31043 -4.180171,-12.341609c3.968133,-0.961281 8.148304,-1.798526 12.479931,-2.449716zm-27.41344,38.823352c-10.723047,-4.682369 -17.659708,-10.822164 -17.659708,-15.690588c0,-4.868424 6.936661,-11.039228 17.659708,-15.690588c2.605034,-1.147335 5.452397,-2.170635 8.390633,-3.131916c1.726592,6.077777 3.998424,12.403627 6.815496,18.884522c-2.786781,6.449886 -5.028322,12.744727 -6.724623,18.791495c-2.998818,-0.961281 -5.846181,-2.015589 -8.481506,-3.162925zm16.296609,44.311957c-4.119589,-2.418707 -5.906763,-11.6284 -4.513373,-23.473864c0.333202,-2.914852 0.878442,-5.98475 1.544846,-9.116666c5.937054,1.488435 12.419349,2.635771 19.234845,3.379988c4.089298,5.736677 8.330051,10.946201 12.601095,15.504534c-9.874897,9.395747 -19.143971,14.543253 -25.444519,14.543253c-1.363099,-0.031009 -2.514161,-0.310091 -3.422894,-0.837245zm71.850475,-23.628909c1.423681,11.845464 -0.333202,21.055157 -4.4225,23.504873c-0.908733,0.558163 -2.090085,0.806236 -3.483476,0.806236c-6.270256,0 -15.569622,-5.116496 -25.444519,-14.450225c4.240753,-4.558333 8.481506,-9.736847 12.510222,-15.473525c6.845787,-0.744218 13.328081,-1.891553 19.265136,-3.410997c0.696695,3.131916 1.241935,6.139795 1.575137,9.023639zm11.662071,-20.683048c-2.605034,1.147335 -5.452397,2.170635 -8.390633,3.131916c-1.726592,-6.077777 -3.998424,-12.403627 -6.815496,-18.884522c2.786781,-6.449886 5.028322,-12.744727 6.724623,-18.791495c2.998818,0.961281 5.846181,2.015589 8.511797,3.162925c10.723047,4.682369 17.659708,10.822164 17.659708,15.690588c-0.030291,4.868424 -6.966952,11.039228 -17.689999,15.690588z" fill="#61DAFB"/>
   <polygon stroke="null" id="svg_3" points="44.64833450317383,7.384731888771057 44.64833450317383,7.384731888771057 44.64833450317383,7.384731888771057 " fill="#61DAFB"/>
   <circle stroke="null" id="svg_4" r="13.843028" cy="75.015508" cx="74.969716" fill="#61DAFB"/>
   <polygon stroke="null" id="svg_5" points="105.1396484375,7.291703224182129 105.1396484375,7.291703224182129 105.1396484375,7.291703224182129 " fill="#61DAFB"/>
  </g>
 </g>
</svg>