<svg
   xmlns:dc="http://purl.org/dc/elements/1.1/"
   xmlns:cc="http://web.resource.org/cc/"
   xmlns:rdf="http://www.w3.org/1999/02/22-rdf-syntax-ns#"
   xmlns:svg="http://www.w3.org/2000/svg"
   xmlns="http://www.w3.org/2000/svg"
   xmlns:sodipodi="http://sodipodi.sourceforge.net/DTD/sodipodi-0.dtd"
   xmlns:inkscape="http://www.inkscape.org/namespaces/inkscape"
   width="774.72974"
   height="222.14906"
   id="svg10017"
   sodipodi:version="0.32"
   inkscape:version="0.44"
   version="1.0">
  <defs
     id="defs10019" />
  <sodipodi:namedview
     id="base"
     pagecolor="#ffffff"
     bordercolor="#666666"
     borderopacity="1.0"
     inkscape:pageopacity="0.0"
     inkscape:pageshadow="2"
     inkscape:zoom="0.35"
     inkscape:cx="350"
     inkscape:cy="520"
     inkscape:document-units="px"
     inkscape:current-layer="layer1"
     inkscape:window-width="200"
     inkscape:window-height="36"
     inkscape:window-x="80"
     inkscape:window-y="368" />
  <metadata
     id="metadata10022">
    <rdf:RDF>
      <cc:Work
         rdf:about="">
        <dc:format>image/svg+xml</dc:format>
        <dc:type
           rdf:resource="http://purl.org/dc/dcmitype/StillImage" />
      </cc:Work>
    </rdf:RDF>
  </metadata>
  <g
     inkscape:label="Ebene 1"
     inkscape:groupmode="layer"
     id="layer1"
     transform="translate(20.22202,-576.0425)">
    <g
       id="g10183">
      <path
         id="path9590"
         class="ps03"
         d="M 577.05239,578.83683 C 577.05239,578.83683 577.05239,621.10009 577.05239,620.75085 L 633.27727,620.75085 C 633.27727,620.75085 632.93774,578.83683 633.27727,578.83683 C 632.93774,578.83683 660.54082,578.83683 660.88042,578.83683 C 660.88042,578.83683 660.88042,683.27259 660.88042,683.62183 L 633.27727,683.62183 L 633.27727,637.51647 L 577.05239,637.51647 L 577.05239,683.62183 L 549.44932,683.62183 L 549.44932,578.83683 L 577.05239,578.83683"
         style="fill:#4d4d4d;fill-rule:evenodd;stroke:none;stroke-width:1;stroke-linecap:butt;stroke-linejoin:miter;stroke-miterlimit:4;stroke-dasharray:none" />
      <path
         id="path9592"
         class="ps03"
         d="M 313.69282,578.83683 C 313.69282,579.18615 313.69282,596.65027 313.69282,596.65027 L 271.08023,596.65027 L 271.08023,683.62183 L 243.13755,683.62183 L 243.13755,596.65027 L 200.87429,596.65027 L 200.87429,578.83683 L 313.69282,578.83683"
         style="fill:#4d4d4d;fill-rule:evenodd;stroke:none;stroke-width:1;stroke-linecap:butt;stroke-linejoin:miter;stroke-miterlimit:4;stroke-dasharray:none" />
      <path
         id="path9594"
         class="ps03"
         d="M 421.62135,683.62183 C 421.62135,683.62183 390.19068,683.62183 390.53515,683.62183 L 381.4538,660.9184 L 329.41055,660.9184 L 320.3292,683.62183 L 289.59224,683.62183 L 338.49189,578.83683 L 372.37238,578.83683 L 421.62135,683.62183 z M 355.60684,596.65027 L 336.04693,644.15285 L 374.82228,644.15285 L 355.60684,596.65027"
         style="fill:#4d4d4d;fill-rule:evenodd;stroke:none;stroke-width:1;stroke-linecap:butt;stroke-linejoin:miter;stroke-miterlimit:4;stroke-dasharray:none" />
      <path
         id="path9596"
         class="ps03"
         d="M 682.90465,683.62183 L 682.90465,578.83683 L 710.84732,578.83683 L 710.84732,683.62183 L 682.90465,683.62183"
         style="fill:#4d4d4d;fill-rule:evenodd;stroke:none;stroke-width:1;stroke-linecap:butt;stroke-linejoin:miter;stroke-miterlimit:4;stroke-dasharray:none" />
      <path
         id="path9598"
         class="ps03"
         d="M 57.318874,578.83683 C 57.318874,578.83683 57.318874,621.10009 57.318874,620.75085 L 113.20415,620.75085 L 113.20415,578.83683 C 113.20415,578.83683 140.79758,578.83683 141.14683,578.83683 C 141.14683,578.83683 141.14683,683.27259 141.14683,683.62183 L 113.20415,683.62183 L 113.20415,637.51647 L 57.318874,637.51647 L 57.318874,683.62183 L 29.376194,683.62183 C 29.376194,683.62183 29.725524,578.83683 29.376194,578.83683 L 57.318874,578.83683"
         style="fill:#4d4d4d;fill-rule:evenodd;stroke:none;stroke-width:1;stroke-linecap:butt;stroke-linejoin:miter;stroke-miterlimit:4;stroke-dasharray:none" />
      <path
         id="path9600"
         class="ps03"
         d="M 163.15169,683.62183 L 163.15169,578.83683 L 190.74505,578.83683 L 190.74505,683.62183 L 163.15169,683.62183"
         style="fill:#4d4d4d;fill-rule:evenodd;stroke:none;stroke-width:1;stroke-linecap:butt;stroke-linejoin:miter;stroke-miterlimit:4;stroke-dasharray:none" />
      <path
         id="path9602"
         class="ps03"
         d="M 420.57354,654.63134 C 418.1285,647.29638 416.73136,639.96143 416.73136,632.27723 C 416.73136,621.10009 418.82707,610.62161 424.06631,601.54026 C 429.30555,592.45892 437.69326,585.47321 447.82242,581.63111 C 457.24823,578.13826 467.70735,576.04255 478.57396,576.04255 C 491.13844,576.04255 503.02378,578.83683 513.50227,583.3775 C 523.59263,587.91825 531.30599,596.99959 533.39198,607.8274 C 533.73159,609.92304 534.07119,612.01875 534.45924,614.46371 L 505.44931,614.46371 C 505.10978,611.6695 504.77017,608.87522 503.70292,606.43026 C 501.61692,600.49245 496.71729,595.9517 490.79883,594.20531 C 486.91793,593.15749 482.74595,592.45892 478.57396,592.45892 C 473.67424,592.45892 469.11414,593.15749 464.94215,594.90388 C 457.59755,597.34884 452.00899,602.93741 449.56403,610.27236 C 447.11899,616.90875 445.72193,624.59295 445.72193,632.27723 C 445.72193,638.56429 446.76975,644.85142 448.51614,650.43991 C 450.61185,658.12419 456.20041,664.41125 463.53537,667.20553 C 468.435,668.95192 473.33472,669.99982 478.57396,669.99982 C 483.08548,669.99982 487.30598,669.30125 491.47804,667.90411 C 496.71729,666.15764 501.27732,662.31554 503.70292,657.0763 C 505.10978,653.58344 505.78891,649.74134 505.78891,645.89924 L 535.13845,645.89924 C 534.79884,649.04277 534.45924,652.53563 533.73159,655.67916 C 531.30599,666.15764 523.98075,674.88974 514.1814,678.73191 C 503.36331,683.62183 491.13844,686.06679 478.57396,686.06679 C 468.77461,686.06679 459.34394,684.66973 450.2626,681.87544 C 436.98983,677.68402 425.11421,667.90411 420.57354,654.63134"
         style="fill:#4d4d4d;fill-rule:evenodd;stroke:none;stroke-width:1;stroke-linecap:butt;stroke-linejoin:miter;stroke-miterlimit:4;stroke-dasharray:none" />
      <path
         id="path9604"
         class="ps03"
         d="M 4.5785143,712.96651 L -20.222016,715.05736 L -20.222016,718.89461 L -19.172736,718.89461 C -9.3947557,719.94728 -9.3947557,719.94728 -9.3947557,727.28224 L -9.3947557,778.97663 L 5.6254043,778.97663 L 5.6254043,712.96651 L 4.5785143,712.96651"
         style="fill:#4d4d4d;fill-rule:evenodd;stroke:none;stroke-width:1;stroke-linecap:butt;stroke-linejoin:miter;stroke-miterlimit:4;stroke-dasharray:none" />
      <path
         id="path9606"
         class="ps03"
         d="M 56.969554,732.52148 C 47.888204,732.52148 42.299644,738.81348 39.854684,742.65072 C 39.854684,739.15301 39.854684,732.17223 39.854684,732.17223 L 38.806864,732.52148 L 18.897714,735.66501 L 18.897714,739.15301 L 19.596284,739.15301 C 25.882884,739.50233 27.280484,740.55501 27.280484,746.49768 L 27.280484,778.97663 L 39.854684,778.97663 L 39.854684,755.22299 C 39.854684,748.94264 45.792494,740.55501 52.079634,740.55501 C 58.017444,740.55501 58.366694,745.79425 58.366694,753.83024 L 58.366694,778.97663 L 70.940894,778.97663 L 70.940894,746.49768 C 70.940894,737.41148 66.050974,732.52148 56.969554,732.52148"
         style="fill:#4d4d4d;fill-rule:evenodd;stroke:none;stroke-width:1;stroke-linecap:butt;stroke-linejoin:miter;stroke-miterlimit:4;stroke-dasharray:none" />
      <path
         id="path9614"
         class="ps03"
         d="M 105.86927,750.68424 C 100.97928,748.23929 96.787854,746.14843 96.787854,742.65072 C 96.787854,738.81348 101.32852,738.45929 103.42424,738.45929 C 108.66348,738.45929 113.20415,741.25844 115.29986,742.29661 L 117.04633,743.7034 L 117.04633,741.94729 L 117.04633,734.26309 L 115.64919,733.92348 C 113.20415,733.57423 109.0128,732.52148 104.12281,732.52148 C 92.596514,732.52148 85.261554,737.41148 85.261554,746.14843 C 85.261554,753.47945 92.596514,757.31677 99.232894,760.46269 C 104.12281,762.90719 109.0128,765.00097 109.0128,768.84793 C 109.0128,772.34418 105.86927,774.08764 100.63003,774.08764 C 94.692144,774.08764 89.802224,771.29243 87.007944,769.5489 L 85.610804,768.49722 L 85.610804,778.27567 L 86.309374,778.27567 C 89.103654,778.97663 93.644324,780.02838 100.28071,780.02838 C 112.8549,780.02838 120.53911,774.78868 120.53911,766.05273 C 120.53911,757.66748 112.8549,753.83024 105.86927,750.68424"
         style="fill:#4d4d4d;fill-rule:evenodd;stroke:none;stroke-width:1;stroke-linecap:butt;stroke-linejoin:miter;stroke-miterlimit:4;stroke-dasharray:none" />
      <path
         id="path9616"
         class="ps03"
         d="M 161.05598,732.52148 C 156.51531,732.52148 151.97464,734.61719 147.78321,738.81348 C 147.78321,736.70805 147.78321,732.17223 147.78321,732.17223 L 146.7354,732.52148 L 126.82624,735.66501 L 126.82624,739.15301 L 127.87406,739.15301 C 133.81187,739.50233 135.20902,740.55501 135.20902,746.49768 L 135.20902,798.19161 L 147.78321,798.19161 C 147.78321,798.19161 147.78321,778.62592 147.78321,774.78868 C 149.87893,777.58389 153.72103,780.02838 160.70673,780.02838 C 173.63018,780.02838 180.61589,771.64314 180.61589,755.5737 C 180.61589,740.90433 173.63018,732.52148 161.05598,732.52148 z M 157.5632,739.50233 C 165.94598,739.50233 166.99379,748.58853 166.99379,755.5737 C 166.99379,767.44547 163.85026,773.38621 157.5632,773.38621 C 149.52968,773.38621 147.78321,765.70248 147.78321,759.4202 L 147.78321,755.22299 C 147.78321,750.68424 148.83111,739.50233 157.5632,739.50233"
         style="fill:#4d4d4d;fill-rule:evenodd;stroke:none;stroke-width:1;stroke-linecap:butt;stroke-linejoin:miter;stroke-miterlimit:4;stroke-dasharray:none" />
      <path
         id="path9618"
         class="ps03"
         d="M 189.34798,735.66501 L 189.34798,739.15301 L 190.04648,739.15301 C 196.33361,739.50233 197.73076,740.55501 197.73076,746.49768 L 197.73076,778.97663 L 209.95563,778.97663 L 209.95563,732.17223 L 209.25706,732.52148 L 189.34798,735.66501"
         style="fill:#4d4d4d;fill-rule:evenodd;stroke:none;stroke-width:1;stroke-linecap:butt;stroke-linejoin:miter;stroke-miterlimit:4;stroke-dasharray:none" />
      <path
         id="path9620"
         class="ps03"
         d="M 204.01782,726.93299 C 208.20924,726.93299 211.70209,723.7846 211.70209,719.94728 C 211.70209,716.44965 208.20924,713.31576 204.01782,713.31576 C 199.82647,713.31576 196.33361,716.44965 196.33361,719.94728 C 196.33361,723.7846 199.82647,726.93299 204.01782,726.93299"
         style="fill:#4d4d4d;fill-rule:evenodd;stroke:none;stroke-width:1;stroke-linecap:butt;stroke-linejoin:miter;stroke-miterlimit:4;stroke-dasharray:none" />
      <path
         id="path9622"
         class="ps03"
         d="M 262.69746,742.65072 L 262.69746,733.22005 L 261.64956,732.8708 C 259.90318,732.52148 257.80746,732.52148 255.71175,732.52148 C 248.72612,732.52148 244.88401,737.76072 243.13755,741.60768 C 243.13755,738.11005 243.13755,732.17223 243.13755,732.17223 L 242.08973,732.52148 L 222.18058,735.66501 L 222.18058,739.15301 L 222.87915,739.15301 C 229.16621,739.50233 230.56335,740.55501 230.56335,746.49768 L 230.56335,778.97663 L 243.13755,778.97663 L 243.13755,755.5737 C 243.13755,751.736 244.53469,742.65072 256.06108,742.65072 C 257.45822,742.65072 259.20461,742.99997 260.60175,743.34929 L 262.69746,744.05272 L 262.69746,742.65072"
         style="fill:#4d4d4d;fill-rule:evenodd;stroke:none;stroke-width:1;stroke-linecap:butt;stroke-linejoin:miter;stroke-miterlimit:4;stroke-dasharray:none" />
      <path
         id="path9624"
         class="ps03"
         d="M 311.94643,751.38575 C 311.94643,738.81348 304.96072,732.52148 291.33871,732.52148 C 275.6209,732.52148 267.9367,739.85644 267.9367,754.8722 C 267.9367,770.59147 278.06594,780.02838 295.18081,780.02838 C 302.51576,780.02838 308.10425,778.27567 310.19997,777.58389 L 310.89854,777.23317 L 310.89854,771.29243 L 309.85072,771.64314 C 307.75501,772.34418 304.26215,773.38621 300.07073,773.38621 C 286.79796,773.38621 281.55872,762.21541 281.55872,752.07745 C 283.30518,752.07745 311.94643,752.07745 311.94643,752.07745 L 311.94643,751.38575 z M 290.98938,737.41148 C 297.62577,737.41148 299.37216,742.29661 299.37216,746.83728 C 297.97509,746.83728 282.95586,746.83728 281.55872,746.83728 C 281.90804,743.34929 283.65443,737.41148 290.98938,737.41148"
         style="fill:#4d4d4d;fill-rule:evenodd;stroke:none;stroke-width:1;stroke-linecap:butt;stroke-linejoin:miter;stroke-miterlimit:4;stroke-dasharray:none" />
      <path
         id="path9626"
         class="ps03"
         d="M 426.16688,732.52148 C 416.73136,732.52148 411.49212,738.11005 409.04716,742.29661 C 409.04716,737.41148 409.04716,711.2104 409.04716,711.2104 L 407.99934,711.2104 L 388.09019,714.00461 L 388.09019,717.50232 L 388.79354,717.50232 C 395.07582,717.50232 396.47782,718.89461 396.47782,725.18653 L 396.47782,778.97663 L 409.04716,778.97663 L 409.04716,755.92395 C 409.04716,747.18653 415.33422,740.55501 420.57354,740.55501 C 427.55917,740.55501 427.55917,745.79425 427.55917,750.334 L 427.55917,778.97663 L 440.13822,778.97663 L 440.13822,748.94264 C 440.13822,744.05272 440.13822,732.52148 426.16688,732.52148"
         style="fill:#4d4d4d;fill-rule:evenodd;stroke:none;stroke-width:1;stroke-linecap:butt;stroke-linejoin:miter;stroke-miterlimit:4;stroke-dasharray:none" />
      <path
         id="path9628"
         class="ps03"
         d="M 496.37768,751.38575 C 496.37768,738.81348 489.39197,732.52148 475.76024,732.52148 C 460.04251,732.52148 452.35831,739.85644 452.35831,754.8722 C 452.35831,770.59147 462.48747,780.02838 479.25309,780.02838 C 486.91793,780.02838 492.5453,778.27567 494.63129,777.58389 L 495.31043,777.23317 L 495.31043,771.29243 L 494.29169,771.64314 C 492.15718,772.34418 488.71284,773.38621 484.49234,773.38621 C 471.20021,773.38621 465.96089,762.21541 465.96089,752.07745 C 467.36775,752.07745 496.37768,752.07745 496.37768,752.07745 L 496.37768,751.38575 z M 475.08111,737.41148 C 482.06674,737.41148 483.8132,742.29661 483.8132,746.83728 C 482.40634,746.83728 467.36775,746.83728 465.96089,746.83728 C 465.96089,743.34929 468.0954,737.41148 475.08111,737.41148"
         style="fill:#4d4d4d;fill-rule:evenodd;stroke:none;stroke-width:1;stroke-linecap:butt;stroke-linejoin:miter;stroke-miterlimit:4;stroke-dasharray:none" />
      <path
         id="path9630"
         class="ps03"
         d="M 355.95608,719.24871 C 355.95608,719.24871 355.95608,732.17223 355.95608,733.57423 C 354.55894,733.57423 347.57817,733.57423 347.57817,733.57423 L 347.57817,739.15301 C 347.57817,739.15301 354.55894,739.15301 355.95608,739.15301 C 355.95608,740.90433 355.95608,767.1044 355.95608,767.1044 C 355.95608,779.32688 363.64028,780.02838 373.07095,780.02838 C 375.51599,780.02838 377.96095,779.67767 380.40591,779.32688 L 381.10934,779.32688 L 381.10934,773.73693 L 380.05666,773.73693 C 379.00877,774.08764 377.61162,774.08764 376.21456,774.08764 C 368.8796,774.08764 368.53028,771.99339 368.53028,765.70248 C 368.53028,765.70248 368.53028,740.90433 368.53028,739.15301 C 369.92742,739.15301 382.50648,739.15301 382.50648,739.15301 L 382.50648,733.57423 C 382.50648,733.57423 369.92742,733.57423 368.53028,733.57423 C 368.53028,731.81805 368.53028,719.24871 368.53028,719.24871 L 355.95608,719.24871"
         style="fill:#4d4d4d;fill-rule:evenodd;stroke:none;stroke-width:1;stroke-linecap:butt;stroke-linejoin:miter;stroke-miterlimit:4;stroke-dasharray:none" />
      <path
         id="path9632"
         class="ps03"
         d="M 602.18142,714.00461 L 589.61687,714.00461 C 589.61687,714.00461 589.61687,758.71924 589.61687,763.25744 C 587.19127,759.4202 557.16267,714.00461 557.16267,714.00461 L 528.15274,714.00461 L 528.15274,717.50232 L 530.57834,718.20575 C 538.2917,719.24871 538.63123,719.59804 538.63123,726.93299 L 538.63123,778.97663 L 552.26304,778.97663 C 552.26304,778.97663 552.26304,731.81805 552.26304,727.28224 C 554.68856,731.1292 586.51213,778.97663 586.51213,778.97663 L 602.90915,778.97663 L 602.90915,714.00461 L 602.18142,714.00461"
         style="fill:#4d4d4d;fill-rule:evenodd;stroke:none;stroke-width:1;stroke-linecap:butt;stroke-linejoin:miter;stroke-miterlimit:4;stroke-dasharray:none" />
      <path
         id="path9634"
         class="ps03"
         d="M 659.13396,751.38575 C 659.13396,738.81348 652.14833,732.52148 638.17706,732.52148 C 622.79886,732.52148 614.79442,739.85644 614.79442,754.8722 C 614.79442,770.59147 624.93337,780.02838 642.00937,780.02838 C 649.3832,780.02838 655.30165,778.27567 657.38757,777.58389 L 658.11529,777.23317 L 658.11529,771.29243 L 657.04796,771.64314 C 654.96197,772.34418 651.08099,773.38621 646.90908,773.38621 C 633.66547,773.38621 628.76568,762.21541 628.37764,752.42778 C 630.17254,752.42778 659.13396,752.42778 659.13396,752.42778 L 659.13396,751.38575 z M 637.83746,737.41148 C 644.48356,737.41148 646.22987,742.29661 646.56955,746.83728 C 644.82309,746.83728 630.17254,746.83728 628.37764,746.83728 C 628.76568,743.34929 630.85175,737.41148 637.83746,737.41148"
         style="fill:#4d4d4d;fill-rule:evenodd;stroke:none;stroke-width:1;stroke-linecap:butt;stroke-linejoin:miter;stroke-miterlimit:4;stroke-dasharray:none" />
      <path
         id="path9636"
         class="ps03"
         d="M 727.9234,719.24871 C 727.9234,719.24871 727.9234,732.17223 727.9234,733.57423 C 726.56505,733.57423 719.57942,733.57423 719.57942,733.57423 L 719.57942,739.15301 C 719.57942,739.15301 726.56505,739.15301 727.9234,739.15301 C 727.9234,740.90433 727.9234,767.1044 727.9234,767.1044 C 727.9234,779.32688 735.63668,780.02838 745.04791,780.02838 C 747.5221,780.02838 749.9477,779.67767 752.37322,779.32688 L 753.44048,779.32688 L 753.44048,773.73693 L 752.03369,773.73693 C 751.01488,774.08764 749.9477,774.08764 748.54084,774.08764 C 740.876,774.08764 740.53647,771.99339 740.53647,765.70248 C 740.53647,765.70248 740.53647,740.90433 740.53647,739.15301 C 742.28278,739.15301 754.50773,739.15301 754.50773,739.15301 L 754.50773,733.57423 C 754.50773,733.57423 742.28278,733.57423 740.53647,733.57423 C 740.53647,731.81805 740.53647,719.24871 740.53647,719.24871 L 727.9234,719.24871"
         style="fill:#4d4d4d;fill-rule:evenodd;stroke:none;stroke-width:1;stroke-linecap:butt;stroke-linejoin:miter;stroke-miterlimit:4;stroke-dasharray:none" />
      <path
         id="path9638"
         class="ps03"
         d="M 702.79436,748.23929 L 715.69845,733.57423 L 702.45483,733.57423 L 690.22996,747.54071 L 679.41187,733.57423 L 660.20129,733.57423 L 660.20129,737.05729 L 661.21995,737.05729 C 667.52645,737.76072 669.27291,738.81348 673.10537,744.05272 L 681.15818,754.5312 L 668.20566,769.19865 L 681.49786,769.19865 L 687.07663,762.55648 L 699.64119,778.97663 L 714.34018,778.97663 L 690.90909,748.23929 L 702.79436,748.23929"
         style="fill:#4d4d4d;fill-rule:evenodd;stroke:none;stroke-width:1;stroke-linecap:butt;stroke-linejoin:miter;stroke-miterlimit:4;stroke-dasharray:none" />
      <path
         id="path9640"
         class="ps03"
         d="M 727.9234,719.24871 L 714.67978,719.24871 L 730.73704,700.73184 L 744.02925,700.73184 L 727.9234,719.24871"
         style="fill:#d40000;fill-rule:evenodd;stroke:none;stroke-width:1;stroke-linecap:butt;stroke-linejoin:miter;stroke-miterlimit:4;stroke-dasharray:none" />
    </g>
  </g>
</svg>
