<?xml version="1.0" encoding="UTF-8" standalone="no"?>
<svg width="16px" height="16px" viewBox="0 0 16 16" version="1.1" xmlns="http://www.w3.org/2000/svg" xmlns:xlink="http://www.w3.org/1999/xlink">
    <!-- Generator: Sketch 3.6.1 (26313) - http://www.bohemiancoding.com/sketch -->
    <title>Page 1</title>
    <desc>Created with Sketch.</desc>
    <defs></defs>
    <g id="Page-1" stroke="none" stroke-width="1" fill="none" fill-rule="evenodd">
        <g>
            <path d="M0,15.9713458 L15.9711139,15.9713458 L15.9711139,3.3126294e-05 L0,3.3126294e-05 L0,15.9713458 Z M0.111569358,15.8597764 L15.8595776,15.8597764 L15.8595776,0.111569358 L0.111569358,0.111569358 L0.111569358,15.8597764 Z" id="Fill-1" fill="#FFFFFF"></path>
            <g id="Group-8" transform="translate(1.888199, 4.211511)">
                <path d="M11.2826965,5.60768199 L11.2826965,0.971988406 C11.2826965,0.323408696 11.6069698,0.132634369 12.0171064,0.132634369 L12.0171064,0.0086426501 L10.3287586,0.0086426501 L10.3287586,0.371044306 L10.3287586,5.60768199 C10.3287586,6.38022029 10.042713,6.59974824 9.64211677,6.59974824 L9.64211677,6.72370683 L12.0839222,6.72370683 L12.0839222,6.59974824 C11.6737855,6.59974824 11.2826965,6.38022029 11.2826965,5.60768199" id="Fill-2" fill="#FFFFFF"></path>
                <path d="M3.98070725,3.51871139 C2.9029764,3.51871139 2.08266998,3.52825176 2.08266998,1.83052919 C2.08266998,0.0945457557 2.96011925,0.132607867 3.98070725,0.132607867 L4.0525913,0.132607867 C4.11235114,0.137609938 4.18927039,0.140889441 4.27642567,0.15367619 L4.27642567,3.51871139 L3.98070725,3.51871139 Z M5.2447735,4.34852505 L5.2447735,0.971995031 L5.2447735,0.494081988 L5.2447735,0.00864927536 L4.0525913,0.00864927536 L3.98070725,0.00864927536 C2.08266998,0.00864927536 1.03332836,0.237551967 1.03332836,1.83052919 C1.03332836,3.12762236 1.77744431,3.50917101 2.80757267,3.57601988 C2.17807371,3.60460787 1.51982112,3.67139048 1.02382112,5.7602352 C0.852226915,6.48513789 0.251282816,6.58054161 0.0032,6.59972174 L0.0032,6.72368033 L0.728102692,6.72368033 C1.94903851,6.72368033 1.8060323,6.71420621 2.34963478,4.64424348 C2.61676522,3.64270311 3.58007785,3.64270311 3.82816066,3.64270311 L4.27642567,3.64270311 L4.27642567,5.73168033 C4.27642567,6.38973416 4.06660373,6.59972174 3.66597433,6.59972174 L3.66597433,6.72368033 L3.76641325,6.72368033 L5.80258716,6.72368033 L6.46567619,6.72368033 L6.46567619,6.59972174 C5.40699296,6.59972174 5.2447735,5.45500952 5.2447735,4.34852505 L5.2447735,4.34852505 Z" id="Fill-4" fill="#FFFFFF"></path>
                <path d="M10.3287685,0.00865921325 L8.43073126,5.40741698 L5.95063188,0.00865921325 L5.24477681,0.00865921325 L5.24477681,0.971971843 L7.90614327,6.80958675 L8.02056149,6.80958675 L10.3287685,0.371027743 L10.3287685,0.00865921325 Z" id="Fill-6" fill="#A6A9AB"></path>
            </g>
        </g>
    </g>
</svg>