<?xml version="1.0" encoding="utf-8"?>
<!-- Generator: Adobe Illustrator 21.1.0, SVG Export Plug-In . SVG Version: 6.00 Build 0)  -->
<svg version="1.1" id="Layer_1" xmlns="http://www.w3.org/2000/svg" xmlns:xlink="http://www.w3.org/1999/xlink" x="0px" y="0px"
	 viewBox="0 0 78 78" style="enable-background:new 0 0 78 78;" xml:space="preserve">
<style type="text/css">

		.st0{fill-rule:evenodd;clip-rule:evenodd;fill:none;stroke:#fff;stroke-linecap:round;stroke-linejoin:round;stroke-miterlimit:10;stroke-width:3;}
	.st1{fill:none;stroke:#fff;stroke-linecap:round;stroke-linejoin:round;stroke-miterlimit:10;stroke-width:3;}
</style>
<path class="st0" d="M50.7,16.2c5.2,1.9,8.2,5.6,8.6,11.3c5.5,1.6,8.8,5.8,8.1,10.8c-0.7,5.3-4.7,9.7-10.3,9.8
	c-11.7,0.2-23.4,0.2-35.2,0c-5.7-0.1-9.6-4.6-10.3-9.8c-0.7-5.3,3.2-9.8,9.9-11.7"/>
<path class="st0" d="M47.6,54c0,2.4,0,4.8,0,7.7c7.1,0,13.7,0,20.3,0"/>
<path class="st0" d="M31.3,54c0,2.4,0,4.8,0,7.7c-7.1,0-13.7,0-20.3,0"/>
<path class="st0" d="M39.5,51.3c0,5,0,9.9,0,14.9"/>
<path class="st0" d="M34.5,55c-2.1-1.8-4.2-1.8-6.3,0"/>
<path class="st0" d="M50.7,55c-2.1-1.8-4.2-1.8-6.3,0"/>
<path class="st0" d="M42.2,65.3c-1.8,2-3.6,2-5.4,0"/>
<g>
	<path id="XMLID_1_" class="st1" d="M50.6,26.1v-4.2h-3.2c-0.3-1.3-0.8-2.5-1.5-3.6l2.3-2.3l-3-3L43,15.3c-1.1-0.7-2.3-1.2-3.6-1.5
		v-3.2h-4.2v3.2c-1.3,0.3-2.5,0.8-3.6,1.5L29.2,13l-3,3l2.3,2.3c-0.7,1.1-1.2,2.3-1.5,3.6h-3.2v4.2H27c0.3,1.3,0.8,2.5,1.5,3.6
		L26.3,32l3,3l2.3-2.3c1.1,0.7,2.3,1.2,3.6,1.5v3.2h4.3v-3.2c1.3-0.3,2.5-0.8,3.6-1.5l2.3,2.3l3-3L46,29.7c0.7-1.1,1.2-2.3,1.5-3.6
		H50.6z"/>
	<circle class="st1" cx="37.2" cy="24" r="6"/>
</g>
</svg>
