<svg xmlns="http://www.w3.org/2000/svg" xmlns:xlink="http://www.w3.org/1999/xlink" viewBox="0 0 24 24" version="1.1">
<g id="surface1">
<path style="fill: #fff" d="M 12 5 C 9.789063 5 8 6.789063 8 9 C 8 11.210938 9.789063 13 12 13 C 14.210938 13 16 11.210938 16 9 C 16 6.789063 14.210938 5 12 5 Z M 4.5 6 C 3.121094 6 2 7.121094 2 8.5 C 2 9.878906 3.121094 11 4.5 11 C 5.878906 11 7 9.878906 7 8.5 C 7 7.121094 5.878906 6 4.5 6 Z M 19.5 6 C 18.121094 6 17 7.121094 17 8.5 C 17 9.878906 18.121094 11 19.5 11 C 20.878906 11 22 9.878906 22 8.5 C 22 7.121094 20.878906 6 19.5 6 Z M 12 7 C 13.105469 7 14 7.894531 14 9 C 14 10.105469 13.105469 11 12 11 C 10.894531 11 10 10.105469 10 9 C 10 7.894531 10.894531 7 12 7 Z M 4.5 13 C 1.082031 13 0 15.65625 0 15.65625 L 0 17 L 4.0625 17 L 4.09375 16.9375 C 4.144531 16.824219 5.015625 14.894531 7.34375 13.78125 C 6.660156 13.339844 5.726563 13 4.5 13 Z M 19.5 13 C 18.273438 13 17.339844 13.339844 16.65625 13.78125 C 18.984375 14.894531 19.855469 16.824219 19.90625 16.9375 L 19.9375 17 L 24 17 L 24 15.65625 C 24 15.65625 22.917969 13 19.5 13 Z M 12 14 C 6.683594 14 5 18 5 18 L 5 20 L 19 20 L 19 18 C 19 18 17.316406 14 12 14 Z M 12 16 C 15.433594 16 16.53125 18 16.53125 18 L 7.46875 18 C 7.46875 18 8.609375 16 12 16 Z "></path>
</g>
</svg>