<svg width="38" height="49" viewBox="0 0 38 49" version="1.1" xmlns="http://www.w3.org/2000/svg" xmlns:xlink="http://www.w3.org/1999/xlink">
<title>Logo</title>
<desc>Created using Figma</desc>
<g id="Canvas" transform="translate(-200 385)">
<g id="Logo">
<g id="Logo">
<g id="Vector">
<use xlink:href="#path0_fill" transform="translate(207.847 -371.298)" fill="#F1C40F"/>
</g>
<g id="Vector">
<use xlink:href="#path1_fill" transform="translate(207.847 -360.195)" fill="#F1C40F"/>
</g>
<g id="Vector">
<use xlink:href="#path2_fill" transform="translate(219.361 -378.346)" fill="#F1C40F"/>
</g>
<g id="Vector">
<use xlink:href="#path3_fill" transform="translate(202.595 -385)" fill="#F1C40F"/>
</g>
</g>
<g id="ZAMO">
<use xlink:href="#path4_fill" transform="translate(200 -344.795)" fill="#FFFFFF"/>
<use xlink:href="#path5_fill" transform="translate(200 -344.795)" fill="#FFFFFF"/>
<use xlink:href="#path6_fill" transform="translate(200 -344.795)" fill="#FFFFFF"/>
<use xlink:href="#path7_fill" transform="translate(200 -344.795)" fill="#FFFFFF"/>
</g>
</g>
</g>
<defs>
<path id="path0_fill" d="M 9.2963 0.891348C 9.2963 0.990173 9.26368 1.089 9.23106 1.18782L 9.16582 1.35253L 3.75114 13.4093C 3.49019 14.1669 2.77258 14.7269 1.9245 14.7269C 0.848083 14.7269 1.2443e-07 13.8704 1.2443e-07 12.7834C 1.2443e-07 12.4539 0.0652374 12.1904 0.195712 11.9269L 0.424042 11.5645L 7.53489 0.528988C 7.66537 0.232511 7.99155 0.0019172 8.35036 0.0019172C 8.87226 -0.0310247 9.2963 0.364278 9.2963 0.891348Z"/>
<path id="path1_fill" d="M 26.0623 5.17187C 26.0623 7.97193 23.8116 10.2449 21.039 10.2449C 20.615 10.2449 20.1909 10.179 19.7669 10.0802L 18.9514 9.78373L 1.36998 3.52478L 1.04379 3.39301C 0.424041 3.09653 1.2443e-07 2.50358 1.2443e-07 1.77886C 1.2443e-07 1.58121 0.0326185 1.38356 0.0978557 1.21885C 0.195711 0.955314 0.326186 0.757663 0.489279 0.560012C 0.815465 0.197651 1.27213 1.00531e-06 1.79402 1.00531e-06L 4.17518 1.00531e-06L 21.039 0.0658837C 23.8116 0.0988256 26.0623 2.37181 26.0623 5.17187Z"/>
<path id="path2_fill" d="M 4.9772e-07 13.8356C 4.9772e-07 13.7368 0.0326181 13.6379 0.0652367 13.5391L 0.130474 13.3744L 5.54516 1.31767C 5.80611 0.560012 6.52372 2.51326e-07 7.3718 2.51326e-07C 8.44821 2.51326e-07 9.2963 0.856488 9.2963 1.94357C 9.2963 2.27299 9.23106 2.53652 9.10059 2.80006L 8.87226 3.16242L 1.72879 14.1979C 1.59831 14.4944 1.27213 14.725 0.913321 14.725C 0.391423 14.725 4.9772e-07 14.3297 4.9772e-07 13.8356Z"/>
<path id="path3_fill" d="M 0 5.07305C 0 2.27299 2.25068 0 5.02326 0C 5.4473 0 5.87135 0.0658837 6.29539 0.164709L 7.11085 0.461186L 24.6923 6.72014L 25.0185 6.85191C 25.6382 7.14838 26.0623 7.74134 26.0623 8.46606C 26.0623 8.66371 26.0296 8.86136 25.9644 9.02607C 25.8665 9.2896 25.7361 9.48725 25.573 9.68491C 25.2468 10.0473 24.7901 10.2449 24.2682 10.2449L 21.8871 10.2449L 5.02326 10.179C 2.25068 10.1461 0 7.8731 0 5.07305Z"/>
<path id="path4_fill" d="M 7.48385 1.47813L 7.48385 0.0739063L 0.158971 0.0739063L 0.158971 1.81071L 4.58569 1.81071L 0 7.29211L 0 8.69633L 7.55722 8.69633L 7.55722 6.95953L 2.91039 6.95953L 7.48385 1.47813Z"/>
<path id="path5_fill" d="M 14.4517 7.10734L 15.0631 8.69633L 17.3866 8.69633L 13.7791 0.0739063L 11.5413 0.0739063L 7.84831 8.69633L 10.0861 8.69633L 10.7098 7.10734L 14.4517 7.10734ZM 13.8158 5.44444L 11.3457 5.44444L 12.593 2.25415L 13.8158 5.44444Z"/>
<path id="path6_fill" d="M 27.5794 8.69633L 27.5794 0.0615887L 25.2071 0.0615887L 22.8836 5.19809L 20.5602 0.0615887L 18.1757 0.0615887L 18.1757 8.69633L 20.12 8.69633L 20.12 3.09175L 22.1744 7.83409L 23.5929 7.83409L 25.6473 3.09175L 25.6595 8.69633L 27.5794 8.69633Z"/>
<path id="path7_fill" d="M 33.3654 0C 30.724 0 28.743 1.85998 28.743 4.3728C 28.743 6.89794 30.724 8.79487 33.3654 8.79487C 36.019 8.79487 38 6.88562 38 4.3728C 38 1.8723 36.019 0 33.3654 0ZM 33.3898 1.83534C 34.7105 1.83534 35.7622 2.93162 35.7622 4.38512C 35.7622 5.83861 34.7105 6.95953 33.3898 6.95953C 32.0814 6.95953 30.9686 5.83861 30.9686 4.38512C 30.9686 2.93162 32.0692 1.83534 33.3898 1.83534Z"/>
</defs>
</svg>
